<svg id="eKhD84Rutx31" xmlns="http://www.w3.org/2000/svg" xmlns:xlink="http://www.w3.org/1999/xlink" viewBox="0 0 828 512" shape-rendering="geometricPrecision" text-rendering="geometricPrecision">
<style><![CDATA[
#eKhD84Rutx33_tr {animation: eKhD84Rutx33_tr__tr 2000ms linear 1 reverse forwards}@keyframes eKhD84Rutx33_tr__tr { 0% {transform: translate(2560.908325px,2565.295532px) rotate(0deg)} 100% {transform: translate(2560.908325px,2565.295532px) rotate(360deg)}} #eKhD84Rutx36_ts {animation: eKhD84Rutx36_ts__ts 2000ms linear 1 reverse forwards}@keyframes eKhD84Rutx36_ts__ts { 0% {transform: translate(2559.999939px,2567.629028px) scale(1,1)} 50% {transform: translate(2559.999939px,2567.629028px) scale(0.75,0.75)} 100% {transform: translate(2559.999939px,2567.629028px) scale(1,1)}} #eKhD84Rutx37_tr {animation: eKhD84Rutx37_tr__tr 2000ms linear 1 reverse forwards}@keyframes eKhD84Rutx37_tr__tr { 0% {transform: translate(2560.408539px,2559.63044px) rotate(0deg)} 100% {transform: translate(2560.408539px,2559.63044px) rotate(-360deg)}}
]]></style>
<g transform="matrix(.1 0 0-.1 316.374234 511.770564)"><g id="eKhD84Rutx33_tr" transform="translate(2560.908325,2565.295532) rotate(360)"><g transform="translate(-2560.908325,-2565.295532)"><path d="M3518,3780c-290-49-437-399-275-653c86-134,255-210,418-187c303,43,462,393,297,651-62,97-153,161-264,184-75,16-105,17-176,5Z" fill="#2fbab2"/><path d="M2326,4084c-185-29-408-110-561-204-338-208-594-549-691-922-48-186-60-453-30-638c56-340,215-636,466-873c419-394,1024-520,1567-327c508,181,905,646,993,1165c28,160,33,465,8,465-5,0-30-14-54-31-85-58-219-108-335-124l-46-6-6-97c-26-451-353-847-799-971-568-157-1173,197-1324,774-31,120-42,310-25,425c63,407,355,753,741,874c182,58,381,69,549,31c39-9,77-15,84-12s21,27,31,53c31,77,101,176,178,252l70,70-55,20c-220,83-524,113-761,76Z" fill="#2fbab2"/></g></g><g id="eKhD84Rutx36_ts" transform="translate(2559.999939,2567.629028) scale(1,1)"><path d="M2485,3144c-132-21-239-76-335-173-87-88-123-149-150-257-53-207,0-404,150-554c120-121,241-171,410-171s290,50,410,171c150,150,203,347,150,554-27,108-63,169-150,257-78,80-149,123-249,153-57,17-185,27-236,20Z" transform="translate(-2559.999939,-2567.629028)" fill="#2fbab2"/></g><g id="eKhD84Rutx37_tr" transform="translate(2560.408539,2559.63044) rotate(-360)"><g transform="translate(-2560.408539,-2559.63044)"><path d="M969,4806c-79-32-120-59-167-110-97-105-134-258-97-400c81-312,477-419,709-192c86,84,126,180,126,307c0,184-112,339-288,400-81,28-209,26-283-5Z" fill="#2fbab2"/><path d="M376,3898C182,3577,67,3243,19,2860c-19-147-16-492,4-635c71-482,246-888,545-1265c77-96,283-310,300-310c5,0,17,21,27,48c33,87,86,171,156,246c38,41,69,78,69,83s-23,31-51,58c-83,81-198,222-271,335-350,536-436,1199-233,1806c48,144,119,302,183,407c23,37,42,69,42,71s-30,22-67,44c-86,51-179,135-228,206-21,31-41,56-44,56-4,0-37-51-75-112Z" fill="#2fbab2"/><path d="M1520,839c-119-23-237-118-293-236-27-58-32-81-35-160-5-134,32-234,119-322c88-87,188-124,322-119c79,3,102,8,160,35c175,83,271,267,238,457-41,242-265,393-511,345Z" fill="#2fbab2"/><path d="M2238,5105c-163-23-307-55-438-97-69-22-128-43-133-47-4-4,11-29,34-55c58-65,126-188,150-271c12-38,23-72,24-73c2-2,43,8,92,22c386,113,792,114,1178,2c733-211,1313-832,1474-1581c75-348,55-736-55-1078-155-480-493-905-926-1166-340-204-761-315-1133-298l-122,5-1-74c-3-98-25-190-69-286-20-43-33-81-29-85s100-9,214-11c461-9,855,82,1251,289c734,384,1224,1085,1347,1924c22,147,25,514,6,650-57,405-198,785-404,1096-109,163-186,258-328,400-381,384-852,627-1395,721-156,27-587,35-737,13Z" fill="#2fbab2"/></g></g></g><g transform="translate(.002155 0.000005)"><path d="M-425.913142,31.399999C-426.721497,12.056636,-414.462859,0.268685,-400.709115,2.8l266.975993-1.300001c17.25504.079814,25.120035,16.263018,25.204027,27.430078.236508,4.358771-3.040059,24.913363-25.204027,26.869922h-266.975993c-17.189779.678454-25.455628-11.933237-25.204027-24.4Z" transform="translate(425.95105-1.499999)" fill="#2fbab2" stroke="#2fbab2" stroke-width="1.024" stroke-linecap="round" stroke-linejoin="round"/><path d="M-425.923986,31.399999c-.555461-19.343363,15.765991-32.431315,25.216876-29.9h165.215621c13.346094.079814,24.145879,15.235471,22.629184,26.402531c2.194681,12.487434-6.332482,29.570028-22.629184,27.259656l-165.216039,1c-11.811956.678454-25.389346-12.295424-25.216458-24.762187Z" transform="translate(425.949045 227.337809)" fill="#2fbab2" stroke="#2fbab2" stroke-width="1.024" stroke-linecap="round" stroke-linejoin="round"/><path d="M-425.913148,31.399999C-426.721504,12.056636,-414.462859,0.268685,-400.709106,2.8l266.976144-1.300001c17.25505.079814,25.12005,16.263018,25.204042,27.430078.236508,4.358771-3.040061,24.913363-25.204042,26.869922h-266.976144c-17.18979.678454-25.455644-11.933237-25.204042-24.4Z" transform="translate(425.950623 456.176918)" fill="#2fbab2" stroke="#2fbab2" stroke-width="1.024" stroke-linecap="round" stroke-linejoin="round"/></g></svg>
