<?xml version="1.0" standalone="no"?>
<!DOCTYPE svg PUBLIC "-//W3C//DTD SVG 20010904//EN"
 "http://www.w3.org/TR/2001/REC-SVG-20010904/DTD/svg10.dtd">
<svg version="1.0" xmlns="http://www.w3.org/2000/svg"
 width="512.000000pt" height="512.000000pt" viewBox="0 0 512.000000 512.000000"
 preserveAspectRatio="xMidYMid meet">
<metadata>
Created by potrace 1.16, written by Peter Selinger 2001-2019
</metadata>
<g transform="translate(0.000000,512.000000) scale(0.100000,-0.100000)"
fill="#000000" stroke="none">
<path d="M2238 5105 c-163 -23 -307 -55 -438 -97 -69 -22 -128 -43 -133 -47
-4 -4 11 -29 34 -55 58 -65 126 -188 150 -271 12 -38 23 -72 24 -73 2 -2 43 8
92 22 386 113 792 114 1178 2 733 -211 1313 -832 1474 -1581 75 -348 55 -736
-55 -1078 -155 -480 -493 -905 -926 -1166 -340 -204 -761 -315 -1133 -298
l-122 5 -1 -74 c-3 -98 -25 -190 -69 -286 -20 -43 -33 -81 -29 -85 4 -4 100
-9 214 -11 461 -9 855 82 1251 289 734 384 1224 1085 1347 1924 22 147 25 514
6 650 -57 405 -198 785 -404 1096 -109 163 -186 258 -328 400 -381 384 -852
627 -1395 721 -156 27 -587 35 -737 13z"/>
<path d="M969 4806 c-79 -32 -120 -59 -167 -110 -97 -105 -134 -258 -97 -400
81 -312 477 -419 709 -192 86 84 126 180 126 307 0 184 -112 339 -288 400 -81
28 -209 26 -283 -5z"/>
<path d="M2326 4084 c-185 -29 -408 -110 -561 -204 -338 -208 -594 -549 -691
-922 -48 -186 -60 -453 -30 -638 56 -340 215 -636 466 -873 419 -394 1024
-520 1567 -327 508 181 905 646 993 1165 28 160 33 465 8 465 -5 0 -30 -14
-54 -31 -85 -58 -219 -108 -335 -124 l-46 -6 -6 -97 c-26 -451 -353 -847 -799
-971 -568 -157 -1173 197 -1324 774 -31 120 -42 310 -25 425 63 407 355 753
741 874 182 58 381 69 549 31 39 -9 77 -15 84 -12 7 3 21 27 31 53 31 77 101
176 178 252 l70 70 -55 20 c-220 83 -524 113 -761 76z"/>
<path d="M376 3898 c-194 -321 -309 -655 -357 -1038 -19 -147 -16 -492 4 -635
71 -482 246 -888 545 -1265 77 -96 283 -310 300 -310 5 0 17 21 27 48 33 87
86 171 156 246 38 41 69 78 69 83 0 5 -23 31 -51 58 -83 81 -198 222 -271 335
-350 536 -436 1199 -233 1806 48 144 119 302 183 407 23 37 42 69 42 71 0 2
-30 22 -67 44 -86 51 -179 135 -228 206 -21 31 -41 56 -44 56 -4 0 -37 -51
-75 -112z"/>
<path d="M3518 3780 c-290 -49 -437 -399 -275 -653 86 -134 255 -210 418 -187
303 43 462 393 297 651 -62 97 -153 161 -264 184 -75 16 -105 17 -176 5z"/>
<path d="M2485 3144 c-132 -21 -239 -76 -335 -173 -87 -88 -123 -149 -150
-257 -53 -207 0 -404 150 -554 120 -121 241 -171 410 -171 169 0 290 50 410
171 150 150 203 347 150 554 -27 108 -63 169 -150 257 -78 80 -149 123 -249
153 -57 17 -185 27 -236 20z"/>
<path d="M1520 839 c-119 -23 -237 -118 -293 -236 -27 -58 -32 -81 -35 -160
-5 -134 32 -234 119 -322 88 -87 188 -124 322 -119 79 3 102 8 160 35 175 83
271 267 238 457 -41 242 -265 393 -511 345z"/>
</g>
</svg>
