<?xml version="1.0" standalone="no"?>
<!DOCTYPE svg PUBLIC "-//W3C//DTD SVG 20010904//EN"
 "http://www.w3.org/TR/2001/REC-SVG-20010904/DTD/svg10.dtd">
<svg version="1.0" xmlns="http://www.w3.org/2000/svg"
 width="700.000000pt" height="700.000000pt" viewBox="0 0 700.000000 700.000000"
 preserveAspectRatio="xMidYMid meet">
<metadata>
Created by potrace 1.11, written by Peter Selinger 2001-2013
</metadata>
<g transform="translate(0.000000,700.000000) scale(0.100000,-0.100000)"
fill="#000000" stroke="none">
<path d="M3237 6994 c-1 -1 -42 -5 -92 -8 -49 -3 -106 -9 -125 -12 -157 -26
-318 -59 -413 -85 -101 -27 -317 -96 -325 -104 -6 -6 20 -49 58 -95 73 -89
190 -311 190 -359 0 -11 4 -22 9 -25 4 -3 11 -19 14 -36 8 -37 17 -37 127 -6
84 24 191 51 240 60 64 13 86 17 100 21 8 2 47 7 85 11 39 3 73 8 76 10 9 5
230 17 324 17 94 0 316 -12 325 -18 3 -2 32 -6 65 -9 33 -4 71 -9 85 -11 14
-3 34 -7 45 -9 364 -73 663 -189 962 -371 237 -145 414 -290 618 -507 186
-198 343 -424 470 -676 125 -250 222 -539 259 -778 4 -22 11 -66 16 -99 29
-183 31 -559 5 -745 -60 -418 -171 -747 -365 -1080 -186 -321 -454 -626 -750
-857 -363 -281 -826 -480 -1305 -558 -153 -25 -227 -30 -452 -30 l-223 0 -1
-40 c-3 -159 -29 -280 -95 -443 -25 -63 -44 -116 -41 -118 15 -15 424 -22 612
-11 479 29 902 145 1344 367 693 348 1251 920 1577 1618 65 139 67 143 109
257 59 161 81 228 121 375 15 54 50 215 59 275 3 17 10 53 15 80 21 112 29
275 30 555 0 218 -3 285 -16 380 -3 25 -8 56 -9 70 -4 30 -11 67 -25 140 -6
30 -14 66 -16 80 -3 14 -14 61 -25 105 -12 44 -22 87 -24 95 -7 31 -54 178
-83 260 -140 399 -359 782 -617 1080 -336 387 -704 676 -1128 885 -123 60
-354 158 -402 170 -5 1 -17 5 -25 8 -24 9 -150 49 -163 51 -7 2 -32 8 -57 15
-25 7 -52 15 -60 16 -8 2 -37 9 -65 15 -108 25 -241 49 -305 54 -184 16 -260
19 -483 20 -136 1 -248 1 -250 0z"/>
<path d="M1391 6588 c-193 -47 -344 -179 -408 -355 -30 -84 -35 -112 -35 -213
-1 -158 53 -288 162 -399 138 -140 329 -201 520 -165 222 41 400 204 456 417
22 82 21 224 0 307 -79 299 -393 483 -695 408z"/>
<path d="M3377 5604 c-1 -1 -38 -5 -82 -8 -219 -16 -494 -96 -728 -210 -97
-47 -229 -125 -277 -163 -8 -6 -51 -40 -95 -74 -87 -68 -262 -240 -310 -304
-17 -22 -38 -49 -48 -60 -65 -72 -305 -485 -281 -485 3 0 2 -6 -4 -12 -12 -16
-65 -170 -86 -253 -14 -58 -18 -77 -30 -160 -4 -22 -9 -50 -11 -61 -23 -106
-23 -497 0 -624 3 -14 7 -41 10 -60 3 -19 8 -42 10 -50 2 -8 7 -29 10 -47 18
-105 116 -369 187 -502 43 -80 152 -252 186 -292 145 -174 251 -282 362 -369
36 -28 73 -57 83 -65 9 -8 19 -15 21 -15 2 0 30 -18 62 -39 135 -90 328 -182
489 -235 127 -41 191 -56 340 -81 120 -20 168 -23 340 -20 110 2 216 6 235 9
19 4 75 14 125 22 212 35 481 135 665 247 74 44 167 105 190 123 109 86 212
179 282 253 85 88 231 275 259 329 8 15 24 42 37 61 59 89 183 379 207 484 52
230 67 353 70 582 2 146 -4 217 -19 232 -3 3 -30 -10 -59 -30 -108 -71 -289
-146 -393 -163 -21 -3 -41 -7 -44 -9 -3 -2 -26 -6 -50 -10 -25 -4 -46 -8 -47
-9 -1 -1 -4 -38 -7 -81 -21 -319 -102 -553 -275 -800 -65 -94 -221 -254 -306
-316 -33 -24 -62 -46 -65 -50 -9 -10 -124 -76 -188 -108 -94 -47 -214 -90
-332 -118 -131 -31 -376 -40 -511 -18 -379 59 -713 250 -954 545 -42 51 -134
197 -170 270 -140 278 -187 661 -119 960 115 510 494 930 980 1089 242 79 490
96 737 52 64 -12 123 -21 131 -21 9 0 36 41 67 101 64 125 117 197 232 316 50
51 88 95 86 97 -18 17 -290 96 -382 111 -17 3 -43 7 -57 10 -28 5 -74 11 -175
21 -69 6 -293 13 -298 8z"/>
<path d="M575 5424 c-203 -317 -334 -601 -435 -948 -31 -108 -77 -309 -85
-378 -3 -23 -7 -44 -9 -47 -2 -3 -7 -35 -11 -71 -4 -36 -10 -74 -13 -85 -9
-33 -10 -685 -2 -750 5 -33 11 -82 14 -110 7 -55 11 -84 26 -160 6 -27 12 -60
15 -73 16 -86 71 -289 105 -393 134 -402 331 -763 596 -1093 93 -115 392 -426
409 -426 6 0 20 21 30 48 26 62 95 192 120 227 24 33 128 157 167 200 15 17
28 34 28 39 0 6 -87 102 -160 176 -112 113 -313 399 -410 584 -49 93 -135 283
-146 321 -1 6 -14 39 -27 75 -23 61 -73 224 -82 266 -61 292 -78 436 -78 674
0 445 90 842 289 1265 34 74 122 235 140 255 30 36 21 47 -90 121 -98 64 -286
235 -286 259 0 4 -15 25 -34 46 l-33 37 -38 -59z"/>
<path d="M4820 5168 c-78 -12 -94 -17 -155 -48 -202 -100 -328 -315 -319 -547
1 -43 5 -89 8 -102 35 -154 136 -295 266 -371 198 -116 431 -112 616 9 263
171 344 539 175 798 -94 144 -211 222 -385 258 -80 16 -125 17 -206 3z"/>
<path d="M3315 4281 c-155 -43 -252 -100 -374 -221 -135 -133 -196 -254 -226
-445 -17 -111 -2 -263 37 -370 73 -199 271 -405 460 -477 121 -46 313 -60 454
-33 282 54 528 294 604 590 20 77 28 220 15 288 -3 15 -7 38 -9 52 -28 160
-116 310 -256 434 -155 139 -283 188 -505 197 -108 3 -142 1 -200 -15z"/>
<path d="M2066 1144 c-158 -38 -306 -158 -380 -309 -45 -90 -54 -135 -54 -257
0 -171 49 -296 161 -409 122 -122 241 -167 437 -164 114 2 184 21 267 72 185
113 285 287 286 498 1 259 -167 486 -413 560 -74 22 -229 26 -304 9z"/>
</g>
</svg>
